# xmcd CD database file
#
# Track frame offsets:
#	150
#	56972
#	83856
#	97002
#	113278
#	135540
#	167622
#	185416
#	206500
#	218510
#
# Disc length: 3576 seconds
#
# Revision: 0
# Processed by: cddbd v1.5.2PL0 Copyright (c) Steve Scherf et al.
# Submitted via: CDex 1.51
#
DISCID=820df60a
DTITLE=Cannonball Adderly - The David Axelrod Years - CD1
DYEAR=2008
DGENRE=Jazz
TTITLE0=Tensity
TTITLE1=Make Your Own Temple
TTITLE2=Hummin'
TTITLE3=Up And At It
TTITLE4=Aries
TTITLE5=Fun In The Church
TTITLE6=Khutsana
TTITLE7=The Price You Got To Pay To Be Free
TTITLE8=Walk Tall (Baby, That's What I Need)
TTITLE9=Music, You All
EXTD=YEAR: 2008
EXTT0=
EXTT1=
EXTT2=
EXTT3=
EXTT4=
EXTT5=
EXTT6=
EXTT7=
EXTT8=
EXTT9=
PLAYORDER=
